<svg width="2915px" height="767px" viewBox="-372.14814814814815 90.72053872053874 1256.2962962962963 330.5589225589225" class="css-np3qrs" style="position: absolute; top: 0px; left: 0px; width: 2915px; height: 767px;"><style>#editor_f8cmic55n_1 ._sw1{stroke-width:0.43097643097643096}#editor_f8cmic55n_1 ._sw2{stroke-width:0.8619528619528619}#editor_f8cmic55n_1 ._sd{stroke-dasharray:4.310 2.155}</style><defs><pattern id="o_f8cmic55n_2" x="0" y="0" width="13.79124579124579" height="13.79124579124579" patternUnits="userSpaceOnUse" class="css-1e1xezv"><rect x="0" y="0" width="13.79124579124579" height="13.79124579124579"></rect><circle cx="0" cy="0" r="0.6464646464646464"></circle><circle cx="13.79124579124579" cy="0" r="0.6464646464646464"></circle><circle cx="13.79124579124579" cy="13.79124579124579" r="0.6464646464646464"></circle><circle cx="0" cy="13.79124579124579" r="0.6464646464646464"></circle></pattern></defs><rect fill="url(#o_f8cmic55n_2)" stroke-width="0.43097643097643096" x="0" y="0" width="512" height="512" class="css-f3jo1l"></rect><svg xmlns="http://www.w3.org/2000/svg" width="512" height="512" viewBox="0 0 512 512" style="overflow: visible;" data-bbox="48 217.76156492933967 306.0120454759106 76.4768701413206"><defs transform="matrix(0.8963906168937683, 0, 0, 0.8963906168937683, 26.52398681640625, 26.52399253845215)" data-uid="o_f8cmic55n_6"><linearGradient x1="24.94%" y1="93.3%" x2="75.06%" y2="6.7%" id="o_f8cmic55n_3" gradientUnits="objectBoundingBox" data-uid="o_f8cmic55n_7"><stop offset="0%" stop-color="rgb(163,1,230)" stop-opacity="1" data-uid="o_f8cmic55n_8"></stop><stop offset="51%" stop-color="rgb(82,95,233)" stop-opacity="1" data-uid="o_f8cmic55n_9"></stop><stop offset="100%" stop-color="rgb(1,191,248)" stop-opacity="1" data-uid="o_f8cmic55n_10"></stop></linearGradient><linearGradient x1="24.94%" y1="93.3%" x2="75.06%" y2="6.7%" id="o_f8cmic55n_4" gradientUnits="objectBoundingBox" data-uid="o_f8cmic55n_11"><stop offset="0%" stop-color="rgb(82,95,233)" stop-opacity="1" data-uid="o_f8cmic55n_12"></stop><stop offset="100%" stop-color="rgb(1,191,248)" stop-opacity="1" data-uid="o_f8cmic55n_13"></stop></linearGradient></defs><rect data-uid="o_f8cmic55n_14" data-fl-background="" x="0" y="0" width="512" height="512" fill="#14162e"></rect><path class="st0" d="M1595.4 567.9c-177.2-263.9-565.4-263.9-742.7-0.2c-206.9-17.2-377.8 146.8-377.8 347.2
			c0 192.2 156.4 348.5 348.5 348.5h803.1c192.2 0 348.5-156.4 348.5-348.5C1975.1 713.1 1802.2 549.6 1595.4 567.9z M1626.6 1171.1
			H823.4c-141.3 0-256.3-115-256.3-256.2c0-141.3 115-256.2 256.3-256.2c78.2 0 151.2 35.1 200.1 96.2l90.2 112.6l59.1-73.8
			l-77.2-96.4c-38.6-48.2-88.3-84.4-143.9-106.4c141.6-170.1 402.5-171.5 545.1 0.6c-55 22-104.2 58-142.4 105.8l-314.4 392.6h118.2
			l268.2-334.9c49-61.1 121.9-96.2 200.1-96.2c141.3 0 256.3 115 256.3 256.2C1882.8 1056.2 1767.8 1171.1 1626.6 1171.1z" fill="url(#o_f8cmic55n_3)" transform="matrix(0.07095848023891449, 0, 0, 0.07095848023891449, 14.3018217086792, 191.51048278808594)" data-uid="o_f8cmic55n_15"></path><path text="Foppa" fill="url(#o_f8cmic55n_4)" space="preserve" text-anchor="start" offset="0" font-scale="contain" font-size="48" font-family="DM Sans" transform="matrix(1.4872076511383057, 0, 0, 1.4872076511383057, 162.81961059570312, 278.53350830078125)" font-style="normal" font-weight="400" letter-spacing="-2" data-fl-textpath="" data-uid="o_f8cmic55n_16" d="M 7.58 0L 3.55 0L 3.55-33.6L 24-33.6L 24-30.29L 7.58-30.29L 7.58-18.48L 21.55-18.48L 21.55-15.22L 7.58-15.22L 7.58 0ZM 36.784 0.58L 36.784 0.58Q 33.424 0.58  30.734-0.96Q 28.044-2.5  26.484-5.3Q 24.924-8.11  24.924-11.9L 24.924-11.9Q 24.924-15.7  26.514-18.5Q 28.094-21.31  30.804-22.85Q 33.524-24.38  36.884-24.38L 36.884-24.38Q 40.244-24.38  42.924-22.85Q 45.614-21.31  47.174-18.5Q 48.734-15.7  48.734-11.9L 48.734-11.9Q 48.734-8.11  47.154-5.3Q 45.564-2.5  42.854-0.96Q 40.144 0.58  36.784 0.58ZM 36.784-2.88L 36.784-2.88Q 38.844-2.88  40.624-3.89Q 42.404-4.9  43.504-6.91Q 44.604-8.93  44.604-11.9L 44.604-11.9Q 44.604-14.88  43.524-16.9Q 42.444-18.91  40.674-19.92Q 38.894-20.93  36.884-20.93L 36.884-20.93Q 34.814-20.93  33.044-19.92Q 31.264-18.91  30.164-16.9Q 29.054-14.88  29.054-11.9L 29.054-11.9Q 29.054-8.93  30.164-6.91Q 31.264-4.9  33.014-3.89Q 34.764-2.88  36.784-2.88ZM 56.38 10.56L 52.35 10.56L 52.35-23.81L 56-23.81L 56.38-19.87Q 57.54-21.6  59.67-22.99Q 61.81-24.38  65.12-24.38L 65.12-24.38Q 68.67-24.38  71.31-22.75Q 73.95-21.12  75.42-18.29Q 76.88-15.46  76.88-11.86L 76.88-11.86Q 76.88-8.26  75.42-5.45Q 73.95-2.64  71.29-1.03Q 68.62 0.58  65.07 0.58L 65.07 0.58Q 62.14 0.58  59.86-0.62Q 57.58-1.82  56.38-3.98L 56.38-3.98L 56.38 10.56ZM 64.64-2.93L 64.64-2.93Q 67.04-2.93  68.86-4.06Q 70.69-5.18  71.74-7.2Q 72.8-9.22  72.8-11.9L 72.8-11.9Q 72.8-14.59  71.74-16.61Q 70.69-18.62  68.86-19.75Q 67.04-20.88  64.64-20.88L 64.64-20.88Q 62.24-20.88  60.42-19.75Q 58.59-18.62  57.54-16.61Q 56.48-14.59  56.48-11.9L 56.48-11.9Q 56.48-9.22  57.54-7.2Q 58.59-5.18  60.42-4.06Q 62.24-2.93  64.64-2.93ZM 84.524 10.56L 80.494 10.56L 80.494-23.81L 84.144-23.81L 84.524-19.87Q 85.684-21.6  87.814-22.99Q 89.954-24.38  93.264-24.38L 93.264-24.38Q 96.814-24.38  99.454-22.75Q 102.094-21.12  103.564-18.29Q 105.024-15.46  105.024-11.86L 105.024-11.86Q 105.024-8.26  103.564-5.45Q 102.094-2.64  99.434-1.03Q 96.764 0.58  93.214 0.58L 93.214 0.58Q 90.284 0.58  88.004-0.62Q 85.724-1.82  84.524-3.98L 84.524-3.98L 84.524 10.56ZM 92.784-2.93L 92.784-2.93Q 95.184-2.93  97.004-4.06Q 98.834-5.18  99.884-7.2Q 100.944-9.22  100.944-11.9L 100.944-11.9Q 100.944-14.59  99.884-16.61Q 98.834-18.62  97.004-19.75Q 95.184-20.88  92.784-20.88L 92.784-20.88Q 90.384-20.88  88.564-19.75Q 86.734-18.62  85.684-16.61Q 84.624-14.59  84.624-11.9L 84.624-11.9Q 84.624-9.22  85.684-7.2Q 86.734-5.18  88.564-4.06Q 90.384-2.93  92.784-2.93ZM 116.558 0.58L 116.558 0.58Q 113.588 0.58  111.618-0.43Q 109.648-1.44  108.688-3.12Q 107.728-4.8  107.728-6.77L 107.728-6.77Q 107.728-10.42  110.508-12.38Q 113.298-14.35  118.098-14.35L 118.098-14.35L 124.528-14.35L 124.528-14.64Q 124.528-17.76  122.898-19.37Q 121.268-20.98  118.528-20.98L 118.528-20.98Q 116.178-20.98  114.468-19.8Q 112.768-18.62  112.338-16.37L 112.338-16.37L 108.208-16.37Q 108.448-18.96  109.958-20.74Q 111.468-22.51  113.728-23.45Q 115.988-24.38  118.528-24.38L 118.528-24.38Q 123.518-24.38  126.038-21.72Q 128.558-19.06  128.558-14.64L 128.558-14.64L 128.558 0L 124.958 0L 124.718-4.27Q 123.708-2.26  121.768-0.84Q 119.828 0.58  116.558 0.58ZM 117.188-2.83L 117.188-2.83Q 119.488-2.83  121.148-4.03Q 122.798-5.23  123.668-7.15Q 124.528-9.07  124.528-11.18L 124.528-11.18L 124.528-11.23L 118.428-11.23Q 114.878-11.23  113.418-10.01Q 111.948-8.78  111.948-6.96L 111.948-6.96Q 111.948-5.09  113.318-3.96Q 114.688-2.83  117.188-2.83Z"></path></svg><path d="M-372.14814814814815 90.72053872053874h1256.2962962962963v330.5589225589225h-1256.2962962962963z M0 0v512h512v-512z" class="css-1m35ybi"></path><g class="css-0" style=""><path class="_sw1 css-jzojre" d="M26.52398681640625 26.52399253845215L 26.52398681640625 26.52399253845215L26.52398681640625 26.52399253845215L26.52398681640625 26.52399253845215 Z" fill="transparent" stroke="red"></path><path class="_sw1 css-jzojre" d="M26.52398681640625 26.52399253845215L 26.52398681640625 26.52399253845215L26.52398681640625 26.52399253845215L26.52398681640625 26.52399253845215 Z" fill="transparent" stroke="red"></path><path class="_sw1 css-jzojre" d="M48.00000570652446 217.76157341866474L 154.44482018053532 217.76157341866474L154.44482018053532 281.1594284543153L48.00000570652446 281.1594284543153 Z" fill="transparent" stroke="red"></path><path class="_sw1 css-jzojre" d="M168.09919768632852 228.56333349183296L 354.01204520424534 228.56333349183296L354.01204520424534 294.23842313917066L168.09919768632852 294.23842313917066 Z" fill="transparent" stroke="red"></path></g></svg>
